HIERARCHY
ROOT simHips
{
  OFFSET 95.7435 99.7512 88.883
  CHANNELS 6 Xposition Yposition Zposition Zrotation Xrotation Yrotation
  JOINT simSpine
  {
    OFFSET -0.000355721 21.3001 -0.016921
    CHANNELS 3 Zrotation Xrotation Yrotation
    JOINT simLeftArm
    {
      OFFSET 13.5181 21.3012 0
      CHANNELS 3 Zrotation Xrotation Yrotation
      JOINT simLeftForeArm
      {
        OFFSET 24.5783 0 0
        CHANNELS 3 Zrotation Xrotation Yrotation
        JOINT simLeftHand
        {
          OFFSET 24.5783 0 0
          CHANNELS 3 Zrotation Xrotation Yrotation
          End Site
          {
            OFFSET 7.32568 1.52588e-05 0.0169305
          }
        }
      }
    }
    JOINT simHead
    {
      OFFSET 0 27.4458 -0.00489235
      CHANNELS 3 Zrotation Xrotation Yrotation
      End Site
      {
        OFFSET 0 0 0
      }
    }
    JOINT simRightArm
    {
      OFFSET -13.5174 21.3012 0
      CHANNELS 3 Zrotation Xrotation Yrotation
      JOINT simRightForeArm
      {
        OFFSET -24.5783 0 0
        CHANNELS 3 Zrotation Xrotation Yrotation
        JOINT simRightHand
        {
          OFFSET -24.5783 0 0
          CHANNELS 3 Zrotation Xrotation Yrotation
          End Site
          {
            OFFSET -7.32568 1.52588e-05 0.0169305
          }
        }
      }
    }
  }
  JOINT simRightUpLeg
  {
    OFFSET -8.44614 -9.41038 0.835684
    CHANNELS 3 Zrotation Xrotation Yrotation
    JOINT simRightLeg
    {
      OFFSET 0 -40.9639 0
      CHANNELS 3 Zrotation Xrotation Yrotation
      JOINT simRightFoot
      {
        OFFSET 0 -40.9639 0
        CHANNELS 3 Zrotation Xrotation Yrotation
        End Site
        {
          OFFSET 0.50614 -9.67405 14.6709
        }
      }
    }
  }
  JOINT simLeftUpLeg
  {
    OFFSET 8.44614 -9.41038 0.835684
    CHANNELS 3 Zrotation Xrotation Yrotation
    JOINT simLeftLeg
    {
      OFFSET 0 -40.9639 0
      CHANNELS 3 Zrotation Xrotation Yrotation
      JOINT simLeftFoot
      {
        OFFSET 0 -40.9639 0
        CHANNELS 3 Zrotation Xrotation Yrotation
        End Site
        {
          OFFSET -0.50614 -9.67405 14.6709
        }
      }
    }
  }
}
MOTION
Frames:	25
Frame Time:	0.0333333
98.6478 99.6203 85.1191 0.636203 -2.06191 -1.3513 0.260359 4.36421 1.2715 4.48113 6.10549 -0.649749 -3.28731 0.547278 0.000113951 -2.81623 7.51894 1.45511 0.488767 -3.62397 1.81682 -5.26678 2.25613 2.12765 2.51607 0.168612 5.87338e-05 6.47414 1.08234 -0.84078 -3.97529 -3.80155 2.26257 1.66896 11.632 -0.40092 2.27772 -2.95917 2.4369 -2.77923 -1.44667 1.12306 -0.0117819 2.86436 0.0546374 1.58179 0.496485 0.162818 
99.1587 99.598 85.1122 0.44188 -2.08896 -1.43123 0.0459675 4.63307 1.16803 4.56568 6.25365 -0.467654 -3.31041 1.03744 0.000113964 -2.98866 7.16442 1.48208 1.00025 -4.05661 2.0128 -4.76694 2.21378 2.16986 2.52913 0.168612 5.87338e-05 6.24088 1.75389 -0.974454 -4.34259 -5.81176 2.15698 2.23111 15.3651 -0.580509 2.85356 -3.04506 2.71801 -2.90674 -1.44504 1.22194 -0.00297424 2.96466 0.0113397 1.8335 0.20817 0.119349 
99.6166 99.599 85.1079 0.177971 -2.17729 -1.4112 -0.00049783 4.91171 0.981797 4.53391 6.22292 -0.296086 -3.31573 1.1591 0.000113969 -3.11191 6.85681 1.43933 1.33886 -4.25832 2.25317 -4.4239 2.39698 2.19178 2.55371 0.168612 5.87338e-05 6.36713 1.97359 -0.853412 -4.61853 -7.2768 1.8792 2.70536 18.1736 -0.749422 3.58706 -2.82734 2.9226 -2.94155 -1.32301 0.852586 0.0166711 2.92569 -0.0047286 2.04659 0.123625 0.392888 
99.9357 99.6048 85.1299 -0.116393 -2.31808 -1.12466 0.0110642 5.1462 0.661255 4.5502 6.27363 -0.288624 -3.32963 1.4612 0.000113982 -3.16776 6.74811 1.44695 1.5989 -4.24247 2.3606 -4.14812 2.63548 2.09484 2.53487 0.168612 5.87338e-05 6.67954 2.25816 -0.792909 -4.71603 -7.97626 1.35872 2.97423 19.6452 -0.848751 4.42854 -3.03463 2.55931 -2.85698 -1.17537 0.5851 0.0300447 2.96195 -0.0195562 2.2837 0.0442791 0.36119 
100.209 99.6196 85.1889 -0.330797 -2.39067 -0.92821 0.0424625 5.19647 0.508884 4.51029 6.41326 -0.386738 -3.33445 1.57005 0.000113988 -3.31518 6.82069 1.59041 1.73776 -4.09461 2.5636 -4.05102 2.95338 1.97255 2.54019 0.168612 5.87338e-05 6.54588 2.32137 -0.884237 -4.77525 -7.99288 0.686338 2.92145 19.3721 -0.830745 4.54761 -3.51903 2.14696 -2.82424 -1.02609 0.416043 0.0581574 2.8906 -0.0145368 2.43802 0.0328963 0.311067 
100.366 99.6288 85.3098 -0.481091 -2.38364 -0.698234 0.00858217 5.0344 0.374117 4.54866 6.52621 -0.494788 -3.32734 1.43059 0.000113981 -3.36763 7.05073 1.57453 1.92236 -3.77487 2.7675 -3.99875 3.00817 1.82495 2.52077 0.168612 5.87338e-05 6.59434 2.43576 -0.788504 -4.69837 -7.41828 0.106411 2.56865 17.4466 -0.700223 4.2596 -4.21151 2.04197 -2.75122 -0.986075 0.253369 0.0294853 2.95247 -0.0134066 2.56303 -0.090199 0.236797 
100.453 99.6132 85.4778 -0.502061 -2.27641 -0.604305 -0.121577 4.68729 0.405675 4.58847 6.61464 -0.61044 -3.31986 1.24664 0.000113972 -3.46286 7.03628 1.68264 1.99915 -3.48392 2.89915 -4.04891 2.92747 1.73662 2.5002 0.168612 5.87338e-05 6.81915 2.46663 -0.768125 -4.56397 -6.43005 -0.617507 1.99463 14.0979 -0.48372 4.46869 -3.59547 2.32781 -2.82657 -0.942125 0.168481 0.0620665 2.84851 -0.0117315 2.69898 -0.151358 0.248058 
100.448 99.5709 85.6635 -0.388015 -2.07935 -0.642166 -0.40509 4.27754 0.600877 4.73032 6.48969 -0.705284 -3.32318 1.31809 0.000113975 -3.66001 7.02834 1.64039 2.00222 -3.34006 2.89296 -4.13086 2.76135 1.60731 2.47933 0.168612 5.87338e-05 7.05106 2.49006 -0.682408 -4.37242 -5.13464 -1.39535 1.35072 9.7713 -0.267798 4.02929 -1.07443 2.84752 -2.94117 -1.05181 0.179643 0.0234531 2.88522 -0.0026003 2.8493 -0.301778 0.302707 
100.394 99.5342 85.8495 -0.262782 -1.76885 -0.829707 -0.638892 3.73982 0.868573 4.78021 6.39838 -0.643536 -3.30841 0.998721 0.000113963 -3.73366 7.09791 1.70026 1.77122 -3.18527 2.77778 -4.26869 2.51254 1.59472 2.46921 0.168612 5.87338e-05 6.74868 2.40742 -0.652637 -4.21023 -4.63372 -1.63372 1.05163 7.53455 -0.184704 2.96148 0.214664 2.3428 -3.06547 -1.24914 0.18707 0.0594735 2.87222 -0.0010176 2.92185 -0.390887 0.476095 
100.288 99.5471 86.0524 -0.17031 -1.50887 -1.06515 -0.763876 3.18697 1.09511 4.66414 5.97214 -0.480444 -3.31007 1.03469 0.000113964 -3.88932 6.46673 1.49246 1.26791 -2.83181 2.55508 -4.38731 2.25637 1.7019 2.44403 0.166081 5.87338e-05 6.68062 1.89223 -0.335914 -4.10056 -4.11442 -1.34186 0.885216 6.20712 -0.146228 2.83432 0.329706 2.21875 -3.06071 -1.42187 0.309381 0.0206151 2.94135 -0.000578486 2.79881 -0.539002 0.57958 
100.123 99.6011 86.2697 -0.276153 -1.21589 -1.11803 -0.624437 2.59332 1.1289 4.40604 5.45696 -0.399315 -3.31019 1.07715 0.000113965 -3.97114 6.1541 1.50604 0.660878 -2.34888 2.3313 -4.45747 2.15772 1.77223 2.36037 0.158127 5.87338e-05 6.8366 1.6209 -0.177869 -3.73566 -2.88692 -1.35334 0.555968 3.49017 -0.0739415 3.18702 1.10656 2.35709 -2.82568 -1.57488 0.299687 0.0123654 2.90719 0.0100605 2.58541 -0.594835 0.686193 
99.9107 99.6525 86.4902 -0.40396 -0.935029 -1.09307 -0.462117 2.01787 1.21138 4.142 5.01219 -0.464322 -3.30967 1.1001 0.000113966 -4.01236 6.47523 1.47589 0.108198 -1.82726 1.97816 -4.52808 2.00814 1.71614 2.38447 0.154827 5.87338e-05 6.71974 2.00609 -0.277277 -3.29314 -1.84161 -1.18286 0.221699 1.18249 -0.0138869 3.66238 1.78115 2.12456 -2.52891 -1.71219 0.446293 0.00897966 2.86455 0.0188325 2.3722 -0.64903 0.549722 
99.6575 99.6802 86.7307 -0.502601 -0.670895 -1.08493 -0.360334 1.41588 1.33545 3.97433 5.04485 -0.549894 -3.30871 1.08816 0.000113966 -4.19159 6.51428 1.39956 -0.354991 -1.15538 1.60955 -4.55472 1.84992 1.5285 2.40416 0.152854 5.87338e-05 6.75059 1.92502 -0.224074 -2.85428 -1.3894 -1.19706 -0.0771669 0.0782675 0.0360016 3.61222 1.90537 2.08453 -2.25296 -1.77888 0.3376 0.0181143 2.74542 0.0251603 2.18731 -0.702554 0.65729 
99.4155 99.6992 86.9533 -0.518543 -0.4301 -1.22327 -0.334169 0.876506 1.52015 3.83055 4.87647 -0.561593 -3.30754 1.02289 0.000113963 -4.26801 6.64572 1.4441 -0.691102 -0.437733 1.37064 -4.51365 1.6128 1.38667 2.36745 0.151975 5.87338e-05 6.76277 1.83857 -0.319746 -2.56115 -1.4652 -0.891608 -0.275953 -0.000407521 0.0714626 3.5088 1.64013 1.90694 -2.08593 -1.89934 0.0778155 0.0308798 2.78593 0.0311318 2.07315 -0.791906 1.0685 
99.1515 99.7174 87.1496 -0.512444 -0.229343 -1.40029 -0.364034 0.451032 1.61283 3.7487 4.64688 -0.351127 -3.30639 0.851069 0.000113958 -4.17909 6.82036 1.39442 -0.800608 0.180687 1.35603 -4.36359 1.40747 1.34505 2.3578 0.151955 5.87338e-05 6.65316 1.55361 -0.500632 -2.33494 -1.56583 -0.703099 -0.390623 -0.00350774 0.0941572 3.46589 1.46196 1.91628 -1.90172 -1.92608 0.18542 0.0204573 2.6992 0.0226134 1.99855 -0.923061 1.13261 
98.9042 99.7358 87.3093 -0.486502 -0.119796 -1.57728 -0.397074 0.232195 1.6367 3.70471 4.50077 -0.0266588 -3.30547 0.886647 0.000113959 -4.14247 6.7306 1.37209 -0.863778 0.493189 1.47766 -4.20862 1.23754 1.29983 2.37732 0.152563 5.87338e-05 6.5342 1.30846 -0.646706 -2.19998 -1.65733 -0.500723 -0.395996 0.0968249 0.0948234 3.38897 1.34569 1.94637 -1.76139 -1.94086 0.195254 0.0237529 2.74383 0.0161764 1.97644 -1.01751 1.30699 
98.6468 99.7533 87.454 -0.434266 -0.028187 -1.61512 -0.470455 0.116989 1.55042 3.72482 4.27746 0.290107 -3.30501 0.988514 0.000113962 -4.2532 6.52144 1.30947 -0.867556 0.533812 1.51753 -4.09195 0.956219 1.1132 2.36703 0.153565 5.87338e-05 6.36475 1.66353 -0.730863 -2.07809 -1.63347 -0.500894 -0.387804 0.0282369 0.0931802 3.13894 1.36012 1.99439 -1.65415 -1.9244 0.084882 0.0403092 2.72637 0.0059554 1.74303 -1.07054 1.47686 
98.3999 99.7561 87.5684 -0.388607 0.042687 -1.51346 -0.534679 0.070888 1.35416 3.74145 4.16056 0.566482 -3.30523 0.928193 0.00011396 -4.36942 5.93893 1.25291 -0.8631 0.329838 1.4188 -3.98557 0.392743 0.883172 2.38562 0.154727 5.87338e-05 6.32933 1.54491 -0.542702 -1.96135 -1.58774 -0.424411 -0.38835 -0.0307693 0.0904163 2.93645 1.30771 1.82733 -1.54762 -1.92225 0.0568773 0.0402049 2.71949 0.00254979 1.60026 -1.13887 1.43088 
98.1573 99.753 87.6727 -0.379226 -0.00440074 -1.30439 -0.568681 0.134096 1.06284 3.77673 4.21039 0.799663 -3.3071 0.972847 0.000113962 -4.25628 5.76171 1.32297 -0.733643 0.0741901 1.28919 -3.8703 0.281452 0.641287 2.37934 0.155816 5.87338e-05 6.25406 1.24876 -0.485362 -1.80934 -1.46338 -0.49051 -0.401251 0.0394814 0.086734 2.80812 1.15178 1.73109 -1.38161 -1.83955 -0.0532283 0.00134414 2.77267 0.00672309 1.55943 -1.21869 1.33766 
97.9382 99.7387 87.7493 -0.368433 -0.0853646 -1.16009 -0.595838 0.255544 0.859754 3.75741 4.82452 1.04224 -3.28342 0.465818 0.000113949 -4.20142 5.99192 1.43221 -0.565516 -0.171217 1.05912 -3.73501 0.496501 0.439351 2.35556 0.1566 5.87338e-05 6.12078 1.2214 -0.642036 -1.68645 -1.32489 -0.38821 -0.383938 0.0707707 0.0812823 2.56592 1.07572 1.51217 -1.27427 -1.68924 -0.0433396 0.0449257 2.73255 0.014626 1.43455 -1.23958 1.19006 
97.74 99.7418 87.8111 -0.351425 -0.132715 -1.13558 -0.621493 0.39826 0.738746 3.70505 4.9848 1.19594 -3.28143 0.423883 0.000113948 -4.15941 6.03793 1.50395 -0.392368 -0.341794 0.893875 -3.56948 0.669964 0.315814 2.38183 0.156844 5.87338e-05 6.07038 1.24749 -0.534523 -1.5881 -1.21297 -0.237794 -0.348145 0.0388288 0.0729072 2.2532 1.0324 1.353 -1.15848 -1.61227 -0.125411 0.0278919 2.7629 0.0221409 1.38139 -1.27269 1.27038 
97.5718 99.7447 87.8876 -0.327159 -0.123622 -1.23385 -0.629248 0.469616 0.768393 3.66476 4.9926 1.2067 -3.28842 0.572233 0.000113951 -4.2485 5.98088 1.46567 -0.215744 -0.320007 0.718883 -3.32791 0.64521 0.277695 2.34906 0.156767 5.87338e-05 6.17836 1.37437 -0.656282 -1.51005 -1.20316 -0.200826 -0.307023 0.060297 0.0658748 2.23446 1.0785 1.37623 -1.0553 -1.55654 0.0479357 0.00273024 2.74052 0.0210501 1.39415 -1.22689 1.19468 
97.4153 99.7538 87.972 -0.300188 -0.0748908 -1.3359 -0.63437 0.465781 0.73821 3.61258 4.82683 1.2294 -3.30599 0.946276 0.000113961 -4.20998 5.88486 1.49125 -0.0931817 -0.216392 0.597479 -3.04318 0.543209 0.333821 2.32575 0.156269 5.87338e-05 6.23858 1.27342 -0.602944 -1.44534 -1.19083 -0.0294838 -0.265583 0.00545293 0.0588522 2.03451 1.12781 1.30041 -0.97904 -1.59125 0.208897 0.0097683 2.82309 0.0163812 1.281 -1.3094 1.16653 
97.2741 99.7606 88.0629 -0.274432 -0.0482394 -1.43647 -0.619305 0.472632 0.703605 3.49396 4.82356 1.32291 -3.29987 0.818925 0.000113957 -4.04075 5.86834 1.56437 -0.0556376 -0.151045 0.525239 -2.81462 0.600429 0.449173 2.32136 0.155849 5.87338e-05 6.29538 1.42631 -0.558838 -1.36621 -1.18636 0.0440104 -0.28563 0.0453277 0.0605791 2.10796 1.0685 1.31899 -0.909437 -1.50247 0.288145 0.0196848 2.71661 0.0124665 1.19077 -1.29675 1.16428 
97.1376 99.7658 88.1383 -0.256845 0.0262651 -1.45776 -0.588746 0.472333 0.62308 3.42145 4.80453 1.38773 -3.30491 0.908384 0.00011396 -4.21393 5.81362 1.44858 -0.0725236 -0.237146 0.442923 -2.57682 0.553408 0.501054 2.30741 0.155414 5.87338e-05 6.33311 1.6039 -0.527556 -1.29129 -1.19088 0.158189 -0.291615 -0.00172468 0.0597514 1.97723 0.99734 1.24063 -0.832677 -1.54633 0.381926 0.00889237 2.73445 0.0115123 1.10565 -1.29702 1.11569 
